{
  "accessors": [
    {
      "bufferView": 2,
      "componentType": 5126,
      "count": 308,
      "max": [
        2.5366499423980713,
        1.4998739957809448,
        1.0353553295135498
      ],
      "min": [
        -2.536649703979492,
        -0.05000000819563866,
        -1.0
      ],
      "type": "VEC3"
    },
    {
      "bufferView": 2,
      "byteOffset": 3696,
      "componentType": 5126,
      "count": 308,
      "max": [
        0.9999998807907104,
        0.9999725818634033,
        0.9037599563598633
      ],
      "min": [
        -0.9999998807907104,
        -0.9999725818634033,
        -0.9053464531898499
      ],
      "type": "VEC3"
    },
    {
      "bufferView": 1,
      "componentType": 5126,
      "count": 308,
      "max": [
        1.0,
        1.0
      ],
      "min": [
        0.0,
        0.0
      ],
      "type": "VEC2"
    },
    {
      "bufferView": 0,
      "componentType": 5125,
      "count": 1356,
      "type": "SCALAR"
    },
    {
      "bufferView": 2,
      "byteOffset": 7392,
      "componentType": 5126,
      "count": 9302,
      "max": [
        1.0201988220214844,
        1.3427878618240356,
        1.0048826932907104
      ],
      "min": [
        -1.0176142454147339,
        -1.0176843404769897,
        -1.0047582387924194
      ],
      "type": "VEC3"
    },
    {
      "bufferView": 2,
      "byteOffset": 119016,
      "componentType": 5126,
      "count": 9302,
      "max": [
        0.9999998211860657,
        0.9999569654464722,
        0.9998553395271301
      ],
      "min": [
        -0.999997079372406,
        -0.9999589323997498,
        -0.999952495098114
      ],
      "type": "VEC3"
    },
    {
      "bufferView": 1,
      "byteOffset": 2464,
      "componentType": 5126,
      "count": 9302,
      "max": [
        0.875,
        0.75
      ],
      "min": [
        0.375,
        0.0
      ],
      "type": "VEC2"
    },
    {
      "bufferView": 0,
      "byteOffset": 5424,
      "componentType": 5125,
      "count": 72576,
      "type": "SCALAR"
    },
    {
      "bufferView": 2,
      "byteOffset": 230640,
      "componentType": 5126,
      "count": 752,
      "max": [
        0.5007603168487549,
        0.28836289048194885,
        0.6491959691047668
      ],
      "min": [
        -0.154817134141922,
        -0.8189785480499268,
        0.0
      ],
      "type": "VEC3"
    },
    {
      "bufferView": 2,
      "byteOffset": 239664,
      "componentType": 5126,
      "count": 752,
      "max": [
        0.9984227418899536,
        0.9989906549453735,
        0.9983530640602112
      ],
      "min": [
        -0.9984226822853088,
        -0.9984224438667297,
        -0.9983565211296082
      ],
      "type": "VEC3"
    },
    {
      "bufferView": 1,
      "byteOffset": 76880,
      "componentType": 5126,
      "count": 752,
      "max": [
        1.0,
        1.0
      ],
      "min": [
        0.0,
        0.0
      ],
      "type": "VEC2"
    },
    {
      "bufferView": 0,
      "byteOffset": 295728,
      "componentType": 5125,
      "count": 4182,
      "type": "SCALAR"
    },
    {
      "bufferView": 2,
      "byteOffset": 248688,
      "componentType": 5126,
      "count": 763,
      "max": [
        5.979302883148193,
        0.029999997466802597,
        0.6491962671279907
      ],
      "min": [
        5.332157135009766,
        -1.0385572910308838,
        -2.9802322387695313e-08
      ],
      "type": "VEC3"
    },
    {
      "bufferView": 2,
      "byteOffset": 257844,
      "componentType": 5126,
      "count": 763,
      "max": [
        0.998420000076294,
        0.9984227418899536,
        0.9983159899711609
      ],
      "min": [
        -0.998420000076294,
        -0.9984226226806641,
        -0.9983112812042236
      ],
      "type": "VEC3"
    },
    {
      "bufferView": 1,
      "byteOffset": 82896,
      "componentType": 5126,
      "count": 763,
      "max": [
        1.0,
        1.0
      ],
      "min": [
        0.0,
        0.0
      ],
      "type": "VEC2"
    },
    {
      "bufferView": 0,
      "byteOffset": 312456,
      "componentType": 5125,
      "count": 4236,
      "type": "SCALAR"
    }
  ],
  "asset": {
    "extras": {
      "author": "Hanif (https://sketchfab.com/Hanif.Adlan.Al.Aufa)",
      "license": "SKETCHFAB Standard (https://sketchfab.com/licenses)",
      "source": "https://sketchfab.com/3d-models/3d-model-of-soccer-football-goal-post-d5327ff82c174478b9472651171128d8",
      "title": "3d model of soccer / football goal post"
    },
    "generator": "Sketchfab-16.8.0",
    "version": "2.0"
  },
  "bufferViews": [
    {
      "buffer": 0,
      "byteLength": 329400,
      "name": "floatBufferViews",
      "target": 34963
    },
    {
      "buffer": 0,
      "byteLength": 89000,
      "byteOffset": 329400,
      "byteStride": 8,
      "name": "floatBufferViews",
      "target": 34962
    },
    {
      "buffer": 0,
      "byteLength": 267000,
      "byteOffset": 418400,
      "byteStride": 12,
      "name": "floatBufferViews",
      "target": 34962
    }
  ],
  "buffers": [
    {
      "byteLength": 685400,
      "uri": "scene.bin"
    }
  ],
  "materials": [
    {
      "doubleSided": true,
      "name": "goal_net__0",
      "pbrMetallicRoughness": {
        "metallicFactor": 0.0,
        "roughnessFactor": 0.6
      }
    },
    {
      "doubleSided": true,
      "name": "Material.001",
      "pbrMetallicRoughness": {
        "metallicFactor": 0.0,
        "roughnessFactor": 0.7254500970548788
      }
    },
    {
      "doubleSided": true,
      "name": "Material.003",
      "pbrMetallicRoughness": {
        "baseColorFactor": [
          0.0,
          0.0,
          0.0,
          1.0
        ],
        "metallicFactor": 0.0
      }
    }
  ],
  "meshes": [
    {
      "name": "goalposts_Material.001_0",
      "primitives": [
        {
          "attributes": {
            "NORMAL": 1,
            "POSITION": 0,
            "TEXCOORD_0": 2
          },
          "indices": 3,
          "material": 1,
          "mode": 4
        }
      ]
    },
    {
      "name": "goal net__0",
      "primitives": [
        {
          "attributes": {
            "NORMAL": 5,
            "POSITION": 4,
            "TEXCOORD_0": 6
          },
          "indices": 7,
          "material": 0,
          "mode": 4
        }
      ]
    },
    {
      "name": "net pole.001_Material.003_0",
      "primitives": [
        {
          "attributes": {
            "NORMAL": 9,
            "POSITION": 8,
            "TEXCOORD_0": 10
          },
          "indices": 11,
          "material": 2,
          "mode": 4
        }
      ]
    },
    {
      "name": "net pole.002_Material.003_0",
      "primitives": [
        {
          "attributes": {
            "NORMAL": 13,
            "POSITION": 12,
            "TEXCOORD_0": 14
          },
          "indices": 15,
          "material": 2,
          "mode": 4
        }
      ]
    }
  ],
  "nodes": [
    {
      "children": [
        1
      ],
      "matrix": [
        1.0,
        0.0,
        0.0,
        0.0,
        0.0,
        2.220446049250313e-16,
        -1.0,
        0.0,
        0.0,
        1.0,
        2.220446049250313e-16,
        0.0,
        0.0,
        0.0,
        0.0,
        1.0
      ],
      "name": "Sketchfab_model"
    },
    {
      "children": [
        2
      ],
      "matrix": [
        0.009999999776482582,
        0.0,
        0.0,
        0.0,
        0.0,
        0.0,
        0.009999999776482582,
        0.0,
        0.0,
        -0.009999999776482582,
        0.0,
        0.0,
        0.0,
        0.0,
        0.0,
        1.0
      ],
      "name": "gawang.fbx"
    },
    {
      "children": [
        3
      ],
      "name": "RootNode"
    },
    {
      "children": [
        4,
        5,
        7,
        9
      ],
      "matrix": [
        98.5551986694336,
        0.0,
        0.0,
        0.0,
        0.0,
        -1.629206545321086e-05,
        -99.99998474120962,
        0.0,
        0.0,
        98.2629394531237,
        -1.600906485474152e-05,
        0.0,
        0.0,
        98.26856994628906,
        75.0,
        1.0
      ],
      "name": "goalposts"
    },
    {
      "mesh": 0,
      "name": "goalposts_Material.001_0"
    },
    {
      "children": [
        6
      ],
      "matrix": [
        2.5110321044921875,
        0.0,
        0.0,
        0.0,
        0.0,
        0.7264971733093262,
        0.0,
        0.0,
        0.0,
        0.0,
        1.001184105873108,
        0.0,
        -0.004064392298460007,
        0.7577767968177795,
        0.01595139503479004,
        1.0
      ],
      "name": "goal net"
    },
    {
      "mesh": 1,
      "name": "goal net__0"
    },
    {
      "children": [
        8
      ],
      "matrix": [
        1.0146596431732178,
        0.0,
        0.0,
        0.0,
        0.0,
        1.0000001192092896,
        0.0,
        0.0,
        0.0,
        0.0,
        3.7622320652008057,
        0.0,
        -3.018259048461914,
        2.2722344398498535,
        -0.9997802376747131,
        1.0
      ],
      "name": "net pole.001"
    },
    {
      "mesh": 2,
      "name": "net pole.001_Material.003_0"
    },
    {
      "children": [
        10
      ],
      "matrix": [
        1.0146596431732178,
        0.0,
        0.0,
        0.0,
        0.0,
        1.0000001192092896,
        0.0,
        0.0,
        0.0,
        0.0,
        3.7622320652008057,
        0.0,
        -2.9130446910858154,
        2.5120928287506104,
        -0.9997802376747131,
        1.0
      ],
      "name": "net pole.002"
    },
    {
      "mesh": 3,
      "name": "net pole.002_Material.003_0"
    }
  ],
  "scene": 0,
  "scenes": [
    {
      "name": "Sketchfab_Scene",
      "nodes": [
        0
      ]
    }
  ]
}
